<?xml version="1.0" standalone="no"?><svg xmlns="http://www.w3.org/2000/svg" viewBox="0 0 1440 320"><path fill="#3B2A22" fill-opacity="1" d="M0,256L34.3,266.7C68.6,277,137,299,206,261.3C274.3,224,343,128,411,106.7C480,85,549,139,617,160C685.7,181,754,171,823,186.7C891.4,203,960,245,1029,240C1097.1,235,1166,181,1234,176C1302.9,171,1371,213,1406,234.7L1440,256L1440,320L1405.7,320C1371.4,320,1303,320,1234,320C1165.7,320,1097,320,1029,320C960,320,891,320,823,320C754.3,320,686,320,617,320C548.6,320,480,320,411,320C342.9,320,274,320,206,320C137.1,320,69,320,34,320L0,320Z"></path></svg>